<?xml version="1.0"?><svg xmlns="http://www.w3.org/2000/svg"  viewBox="0 0 100 100" width="400px" height="400px">    <path d="M 54.701172 15.087891 C 52.646172 15.087891 50.71525 15.843547 49.28125 17.185547 C 47.85825 16.448547 46.235062 16.0625 44.539062 16.0625 C 39.619062 16.0625 35.608969 19.359594 35.542969 23.433594 C 34.528969 24.078594 33.790594 24.995313 33.433594 26.070312 C 33.161594 26.887313 33.383281 28.070641 33.863281 29.681641 C 33.322281 29.861641 32.710953 30.183812 32.251953 30.757812 C 31.824953 31.291812 31.381219 32.240422 31.699219 33.732422 C 31.731219 33.894422 31.810922 34.506703 31.919922 35.345703 C 32.412922 39.141703 32.730234 41.250219 32.990234 42.449219 C 32.144234 42.674219 31.643563 43.116719 31.351562 43.511719 C 30.926562 44.084719 30.530781 45.115938 31.050781 46.710938 L 31.080078 46.84375 C 31.747078 49.75275 32.139609 51.163938 32.349609 51.835938 C 32.692609 52.929938 33.318844 53.634406 34.214844 53.941406 C 34.216844 54.704406 34.210781 55.524938 34.175781 56.335938 C 34.110781 57.855938 34.527125 59.256281 35.453125 60.613281 C 37.372125 63.427281 39.777469 65.744766 42.605469 67.509766 C 42.550469 68.806766 42.460703 69.816078 42.345703 70.455078 C 42.292703 70.746078 42.141484 71.117906 41.646484 71.253906 L 31.667969 74.726562 C 30.487969 75.052562 29.443406 75.510937 28.566406 76.085938 C 24.248406 78.909937 23.644313 83.403859 23.445312 84.880859 C 23.424313 85.038859 23.408578 85.161281 23.392578 85.238281 C 23.323578 85.563281 23.416797 85.814219 23.466797 85.949219 C 23.483797 85.997219 23.510063 86.066781 23.539062 86.175781 C 23.654062 86.614781 24.051859 86.921875 24.505859 86.921875 L 75.421875 86.921875 C 75.875875 86.921875 76.271719 86.615781 76.386719 86.175781 C 76.416719 86.064781 76.442937 85.997219 76.460938 85.949219 C 76.510938 85.816219 76.602156 85.566141 76.535156 85.244141 C 76.517156 85.159141 76.501469 85.031188 76.480469 84.867188 C 76.282469 83.312187 75.754531 79.182281 71.769531 76.363281 C 70.745531 75.638281 69.555016 75.085328 68.291016 74.736328 L 58.210938 71.230469 C 57.792938 71.118469 57.634172 70.739406 57.576172 70.441406 C 57.461172 69.846406 57.373359 68.86975 57.318359 67.59375 C 60.393359 65.75775 63.001172 63.096781 65.076172 59.675781 C 65.496172 58.983781 65.820125 57.818844 65.828125 56.964844 C 65.838125 55.956844 65.839797 54.945547 65.841797 53.935547 L 65.841797 53.830078 C 66.593797 53.481078 67.127594 52.813938 67.433594 51.835938 C 67.644594 51.163937 68.034172 49.75275 68.701172 46.84375 L 68.712891 46.78125 C 69.250891 45.12125 68.856641 44.089578 68.431641 43.517578 C 68.259641 43.286578 68.016875 43.037172 67.671875 42.826172 C 69.410875 43.259172 71.164594 43.038312 72.558594 42.195312 C 74.400594 41.080312 75.58975 39.000719 76.09375 36.011719 C 76.17075 35.559719 75.928813 35.112734 75.507812 34.927734 C 75.086812 34.747734 74.594453 34.871375 74.314453 35.234375 C 73.746453 35.971375 72.889656 36.359563 72.097656 36.476562 C 72.073656 36.361562 72.044719 36.247719 72.011719 36.136719 C 72.729719 35.250719 73.119141 34.166531 73.119141 33.019531 C 73.119141 30.642531 71.424094 28.643141 69.121094 28.119141 C 69.148094 27.887141 69.162109 27.654922 69.162109 27.419922 C 69.162109 23.839922 65.989828 20.946906 62.298828 21.253906 C 61.784828 17.774906 58.573172 15.087891 54.701172 15.087891 z M 54.701172 17.082031 C 57.827172 17.082031 60.370188 19.391531 60.367188 22.269531 C 60.366188 22.282531 60.359375 22.380531 60.359375 22.394531 C 60.348375 22.712531 60.488281 23.017844 60.738281 23.214844 C 60.988281 23.413844 61.319 23.480531 61.625 23.394531 C 62.024 23.285531 62.425312 23.228516 62.820312 23.228516 C 65.214313 23.228516 67.162109 25.107016 67.162109 27.416016 C 67.162109 27.843016 67.094891 28.266828 66.962891 28.673828 C 66.863891 28.977828 66.940906 29.309359 67.128906 29.568359 C 67.316906 29.828359 67.642891 29.980469 67.962891 29.980469 C 69.703891 29.980469 71.119141 31.343578 71.119141 33.017578 C 71.119141 33.834578 70.783781 34.603687 70.175781 35.179688 C 69.867781 35.470688 69.777219 35.923547 69.949219 36.310547 C 70.117219 36.687547 70.207844 37.092672 70.214844 37.513672 C 70.223844 38.023672 70.615047 38.445188 71.123047 38.492188 C 71.868901 38.56299 72.622819 38.466474 73.328125 38.234375 C 73.078301 38.804857 72.776897 39.292977 72.431641 39.710938 C 72.155863 40.015482 71.856263 40.278898 71.523438 40.480469 C 70.053438 41.370469 68.412391 40.981437 67.775391 40.773438 C 67.635391 40.727438 67.488797 40.715422 67.341797 40.732422 C 67.200797 40.749422 67.057109 40.763672 66.912109 40.763672 C 66.891109 40.763672 66.814922 40.757812 66.794922 40.757812 C 66.503676 40.741713 66.231204 40.858639 66.037109 41.060547 C 65.050822 40.95698 64.108801 40.487467 63.474609 39.71875 C 63.348609 39.56575 63.145125 39.501688 62.953125 39.554688 C 60.567125 40.221688 57.974313 39.078516 56.945312 36.978516 C 56.886312 36.859516 56.78125 36.767609 56.65625 36.724609 C 56.53125 36.682609 56.395391 36.691 56.275391 36.75 C 54.842391 37.454 53.188187 37.826172 51.492188 37.826172 C 47.337188 37.826172 43.649656 35.531141 42.722656 32.369141 C 42.683656 32.238141 42.593656 32.128406 42.472656 32.066406 C 42.350656 32.002406 42.211031 31.992109 42.082031 32.037109 C 40.955031 32.417109 39.657781 32.417063 38.425781 32.039062 C 37.515785 31.758876 36.713151 31.297164 36.085938 30.708984 C 36.17382 30.410351 36.105129 30.159168 35.933594 29.609375 C 35.311594 27.621375 35.261125 26.927266 35.328125 26.697266 C 35.651125 25.726266 36.419859 25.184391 37.005859 24.900391 C 37.379859 24.719391 37.5995 24.284094 37.5625 23.871094 C 37.5525 23.759094 37.542969 23.64525 37.542969 23.53125 C 37.542969 20.51225 40.681063 18.056641 44.539062 18.056641 C 46.147063 18.056641 47.663781 18.48025 48.925781 19.28125 C 49.346781 19.54825 49.899656 19.464938 50.222656 19.085938 C 51.308656 17.811937 52.940172 17.082031 54.701172 17.082031 z M 35.371094 31.408203 C 36.114097 32.113784 37.060895 32.66478 38.130859 32.994141 C 39.388859 33.382141 40.715922 33.425953 41.919922 33.126953 C 43.181922 36.507953 47.034188 38.826172 51.492188 38.826172 C 53.172188 38.826172 54.81725 38.489656 56.28125 37.847656 C 57.58325 40.010656 60.322016 41.188703 62.916016 40.595703 C 63.575628 41.292859 64.449976 41.767396 65.386719 41.972656 C 65.190243 42.201893 64.995806 42.396366 64.914062 42.457031 C 64.533062 42.695031 64.359281 43.160797 64.488281 43.591797 C 64.616281 44.021797 64.981797 44.311687 65.466797 44.304688 C 66.130797 44.280688 66.627125 44.436031 66.828125 44.707031 C 67.032125 44.982031 67.026547 45.500922 66.810547 46.169922 C 66.808547 46.174922 66.785906 46.254484 66.753906 46.396484 C 66.100906 49.242484 65.725391 50.600281 65.525391 51.238281 C 65.300391 51.956281 65.008125 52.054656 64.703125 52.097656 C 64.211125 52.167656 63.846703 52.588938 63.845703 53.085938 L 63.84375 53.931641 C 63.84175 54.936641 63.838125 55.941313 63.828125 56.945312 C 63.823125 57.432313 63.600187 58.254672 63.367188 58.638672 C 61.354188 61.957672 58.811547 64.485297 55.810547 66.154297 C 55.726415 66.20098 55.651613 66.259813 55.585938 66.326172 C 54.525038 66.937148 52.227775 68.156039 50.519531 68.332031 C 48.729885 68.504818 45.343643 66.789217 43.994141 66.003906 C 41.259429 64.362827 38.940602 62.170752 37.105469 59.480469 C 36.421469 58.478469 36.125875 57.505016 36.171875 56.416016 C 36.220875 55.259016 36.216031 54.098562 36.207031 53.101562 C 36.202031 52.570563 35.782953 52.135328 35.251953 52.111328 C 34.767953 52.089328 34.481812 51.948375 34.257812 51.234375 C 34.057813 50.596375 33.682297 49.238578 33.029297 46.392578 C 32.996297 46.251578 32.974703 46.170203 32.970703 46.158203 C 32.755703 45.493203 32.750078 44.974266 32.955078 44.697266 C 33.155078 44.428266 33.647547 44.269922 34.310547 44.294922 C 34.770547 44.257922 35.191734 43.987203 35.302734 43.533203 C 35.379734 43.223203 35.300375 42.903969 35.109375 42.667969 C 34.764375 41.738969 34.139391 36.927937 33.900391 35.085938 C 33.758391 33.990937 33.693297 33.499453 33.654297 33.314453 C 33.530297 32.733453 33.582594 32.291812 33.808594 32.007812 C 34.165594 31.555812 34.949672 31.449313 35.138672 31.445312 C 35.218845 31.444509 35.29549 31.427252 35.371094 31.408203 z M 42.152344 42.302734 C 41.079275 42.290535 40.021172 42.380422 39.029297 42.576172 L 39.705078 43.855469 C 41.883078 43.384469 44.480484 43.570422 46.646484 44.357422 L 47.414062 43.201172 C 45.771563 42.627422 43.940791 42.323066 42.152344 42.302734 z M 56.697266 42.349609 C 55.256891 42.395359 53.832422 42.620031 52.544922 43.019531 L 53.353516 44.220703 C 55.468516 43.521703 58.072594 43.432328 60.308594 43.986328 L 60.949219 42.755859 C 59.594219 42.438359 58.137641 42.303859 56.697266 42.349609 z M 42.841797 45.132812 C 42.190797 45.132812 41.619062 45.564844 41.289062 46.214844 C 41.371063 46.189844 41.456875 46.171875 41.546875 46.171875 C 42.080875 46.171875 42.511719 46.654 42.511719 47.25 C 42.511719 47.846 42.079875 48.328125 41.546875 48.328125 C 41.371875 48.328125 41.210359 48.273594 41.068359 48.183594 C 41.296359 49.160594 42.003797 49.873047 42.841797 49.873047 C 43.863797 49.873047 44.691406 48.811906 44.691406 47.503906 C 44.692406 46.193906 43.864797 45.132812 42.841797 45.132812 z M 57.007812 45.132812 C 56.451813 45.132812 55.954234 45.447359 55.615234 45.943359 C 55.721234 45.898359 55.835078 45.871094 55.955078 45.871094 C 56.489078 45.871094 56.921875 46.355172 56.921875 46.951172 C 56.921875 47.547172 56.488078 48.029297 55.955078 48.029297 C 55.624078 48.029297 55.332203 47.844547 55.158203 47.560547 C 55.182203 48.842547 56.000812 49.871094 57.007812 49.871094 C 58.029812 49.871094 58.857422 48.811906 58.857422 47.503906 C 58.857422 46.194906 58.029813 45.132813 57.007812 45.132812 z M 52.347656 55.4375 C 52.258031 55.44375 52.169922 55.484141 52.107422 55.556641 C 51.626422 56.105641 50.817672 56.419922 49.888672 56.419922 C 48.959672 56.419922 48.150922 56.105641 47.669922 55.556641 C 47.547922 55.418641 47.320828 55.398484 47.173828 55.521484 C 47.027828 55.647484 47.011719 55.870578 47.136719 56.017578 C 47.800719 56.794578 48.828672 57.257812 49.888672 57.257812 C 50.948672 57.257813 51.979578 56.794578 52.642578 56.017578 C 52.768578 55.870578 52.750516 55.646531 52.603516 55.519531 C 52.529516 55.458031 52.437281 55.43125 52.347656 55.4375 z M 57.642578 58.994141 C 57.551578 58.981141 57.457766 59.011313 57.384766 59.070312 C 55.745766 60.377312 53.013672 61.126953 49.888672 61.126953 C 46.764672 61.126953 44.033531 60.377313 42.394531 59.070312 C 42.248531 58.953313 42.013438 58.978047 41.898438 59.123047 C 41.776438 59.273047 41.799219 59.497141 41.949219 59.619141 C 43.864219 61.183141 46.832672 62.117188 49.888672 62.117188 C 52.944672 62.117187 55.913125 61.184141 57.828125 59.619141 C 57.978125 59.497141 58.002859 59.274 57.880859 59.125 C 57.821859 59.052 57.736578 59.004141 57.642578 58.994141 z M 44.599609 67.462891 C 46.072371 68.229303 48.484564 69.345703 50.253906 69.345703 C 50.379906 69.345703 50.502094 69.338219 50.621094 69.324219 C 52.203554 69.161124 54.067475 68.276663 55.326172 67.599609 C 55.385548 69.000288 55.478168 70.122194 55.615234 70.824219 C 55.844234 71.999219 56.619094 72.873625 57.621094 73.140625 L 67.695312 76.644531 C 68.798312 76.950531 69.780234 77.405094 70.615234 77.996094 C 73.740234 80.206094 74.270656 83.388875 74.472656 84.921875 L 25.457031 84.921875 C 25.510392 84.541365 25.590607 84.041514 25.730469 83.472656 C 28.90659 83.796062 31.992037 83.964844 34.947266 83.964844 C 40.820266 83.964844 46.192781 83.329266 50.800781 82.072266 C 53.121781 81.440266 55.424625 80.64875 57.640625 79.71875 C 57.895625 79.61275 58.015203 79.319453 57.908203 79.064453 C 57.802203 78.809453 57.508906 78.691875 57.253906 78.796875 C 55.077906 79.709875 52.818062 80.485422 50.539062 81.107422 C 43.77145 82.952522 35.309384 83.41624 26.021484 82.490234 C 26.557962 80.934392 27.584949 79.114204 29.660156 77.753906 C 30.365156 77.291906 31.220719 76.921859 32.261719 76.630859 L 42.234375 73.158203 C 43.323375 72.865203 44.0995 71.986641 44.3125 70.806641 C 44.447384 70.058975 44.540274 68.899842 44.599609 67.462891 z M 63.289062 75.867188 C 63.224594 75.874672 63.161563 75.893734 63.101562 75.927734 C 62.061563 76.516734 60.988062 77.078656 59.914062 77.597656 C 59.665062 77.717656 59.561641 78.016625 59.681641 78.265625 C 59.768641 78.443625 59.946813 78.546875 60.132812 78.546875 C 60.205813 78.546875 60.280609 78.531094 60.349609 78.496094 C 61.443609 77.968094 62.53475 77.397828 63.59375 76.798828 C 63.83375 76.661828 63.91725 76.357187 63.78125 76.117188 C 63.67925 75.936437 63.482469 75.844734 63.289062 75.867188 z"/></svg>